<mxfile host="app.diagrams.net" agent="Mozilla/5.0 (Windows NT 10.0; Win64; x64) AppleWebKit/537.36 (KHTML, like Gecko) Chrome/130.0.0.0 Safari/537.36" version="24.8.4">
  <diagram id="C5RBs43oDa-KdzZeNtuy" name="Page-1">
    <mxGraphModel dx="1434" dy="883" grid="1" gridSize="10" guides="1" tooltips="1" connect="1" arrows="1" fold="1" page="1" pageScale="1" pageWidth="827" pageHeight="1169" math="0" shadow="0">
      <root>
        <mxCell id="WIyWlLk6GJQsqaUBKTNV-0" />
        <mxCell id="WIyWlLk6GJQsqaUBKTNV-1" parent="WIyWlLk6GJQsqaUBKTNV-0" />
        <mxCell id="HtzidGlu3LuhMGh3_q5L-2" value="" style="rounded=0;whiteSpace=wrap;html=1;fillColor=#fff2cc;strokeColor=#d6b656;" vertex="1" parent="WIyWlLk6GJQsqaUBKTNV-1">
          <mxGeometry x="90" y="70" width="860" height="180" as="geometry" />
        </mxCell>
        <mxCell id="HtzidGlu3LuhMGh3_q5L-3" value="生产计划" style="text;html=1;align=center;verticalAlign=middle;whiteSpace=wrap;rounded=0;fontSize=16;" vertex="1" parent="WIyWlLk6GJQsqaUBKTNV-1">
          <mxGeometry x="100" y="80" width="70" height="30" as="geometry" />
        </mxCell>
        <mxCell id="HtzidGlu3LuhMGh3_q5L-8" value="" style="edgeStyle=none;curved=1;rounded=0;orthogonalLoop=1;jettySize=auto;html=1;fontSize=12;startSize=8;endSize=8;" edge="1" parent="WIyWlLk6GJQsqaUBKTNV-1" source="HtzidGlu3LuhMGh3_q5L-4" target="HtzidGlu3LuhMGh3_q5L-7">
          <mxGeometry relative="1" as="geometry" />
        </mxCell>
        <mxCell id="HtzidGlu3LuhMGh3_q5L-13" value="&lt;div style=&quot;line-height: 1.3; font-family: &amp;quot;Source Han Sans CN&amp;quot;; text-align: left; vertical-align: middle; color: rgb(25, 25, 26); font-size: 14px;&quot;&gt;&lt;p&gt;推送数据给高线系统&lt;/p&gt;&lt;/div&gt;" style="edgeLabel;html=1;align=center;verticalAlign=middle;resizable=0;points=[];fontSize=12;labelBackgroundColor=none;" vertex="1" connectable="0" parent="HtzidGlu3LuhMGh3_q5L-8">
          <mxGeometry x="-0.05" y="-1" relative="1" as="geometry">
            <mxPoint y="-11" as="offset" />
          </mxGeometry>
        </mxCell>
        <mxCell id="HtzidGlu3LuhMGh3_q5L-4" value="MES" style="rounded=1;whiteSpace=wrap;html=1;" vertex="1" parent="WIyWlLk6GJQsqaUBKTNV-1">
          <mxGeometry x="120" y="150" width="110" height="40" as="geometry" />
        </mxCell>
        <mxCell id="HtzidGlu3LuhMGh3_q5L-10" value="" style="edgeStyle=none;curved=1;rounded=0;orthogonalLoop=1;jettySize=auto;html=1;fontSize=12;startSize=8;endSize=8;" edge="1" parent="WIyWlLk6GJQsqaUBKTNV-1" source="HtzidGlu3LuhMGh3_q5L-7" target="HtzidGlu3LuhMGh3_q5L-9">
          <mxGeometry relative="1" as="geometry" />
        </mxCell>
        <mxCell id="HtzidGlu3LuhMGh3_q5L-7" value="&lt;div style=&quot;line-height: 1.3; font-family: &amp;quot;Source Han Sans CN&amp;quot;; vertical-align: middle; color: rgb(25, 25, 26); font-size: 14px;&quot;&gt;&lt;p&gt;预排计划&lt;/p&gt;&lt;/div&gt;" style="rounded=1;whiteSpace=wrap;html=1;" vertex="1" parent="WIyWlLk6GJQsqaUBKTNV-1">
          <mxGeometry x="440" y="150" width="110" height="40" as="geometry" />
        </mxCell>
        <mxCell id="HtzidGlu3LuhMGh3_q5L-12" value="" style="edgeStyle=none;curved=1;rounded=0;orthogonalLoop=1;jettySize=auto;html=1;fontSize=12;startSize=8;endSize=8;" edge="1" parent="WIyWlLk6GJQsqaUBKTNV-1" source="HtzidGlu3LuhMGh3_q5L-9" target="HtzidGlu3LuhMGh3_q5L-11">
          <mxGeometry relative="1" as="geometry" />
        </mxCell>
        <mxCell id="HtzidGlu3LuhMGh3_q5L-9" value="&lt;div style=&quot;line-height: 1.3; font-family: &amp;quot;Source Han Sans CN&amp;quot;; vertical-align: middle; color: rgb(25, 25, 26); font-size: 14px;&quot;&gt;&lt;div style=&quot;line-height: 1.3; vertical-align: middle;&quot;&gt;&lt;p&gt;批次单&lt;/p&gt;&lt;/div&gt;&lt;/div&gt;" style="rounded=1;whiteSpace=wrap;html=1;" vertex="1" parent="WIyWlLk6GJQsqaUBKTNV-1">
          <mxGeometry x="630" y="150" width="110" height="40" as="geometry" />
        </mxCell>
        <mxCell id="HtzidGlu3LuhMGh3_q5L-11" value="&lt;div style=&quot;line-height: 1.3; font-family: &amp;quot;Source Han Sans CN&amp;quot;; vertical-align: middle; color: rgb(25, 25, 26); font-size: 14px;&quot;&gt;&lt;div style=&quot;line-height: 1.3; vertical-align: middle;&quot;&gt;&lt;div style=&quot;line-height: 1.3; vertical-align: middle;&quot;&gt;&lt;p&gt;产品信息&lt;/p&gt;&lt;/div&gt;&lt;/div&gt;&lt;/div&gt;" style="rounded=1;whiteSpace=wrap;html=1;" vertex="1" parent="WIyWlLk6GJQsqaUBKTNV-1">
          <mxGeometry x="810" y="150" width="110" height="40" as="geometry" />
        </mxCell>
      </root>
    </mxGraphModel>
  </diagram>
</mxfile>
